<svg width="72" height="72" viewBox="0 0 72 72" fill="none" xmlns="http://www.w3.org/2000/svg">
<rect width="72" height="72" rx="36" fill="white"/>
<g clip-path="url(#clip0_965_30)">
<path d="M29.5209 32.1728C29.3381 31.9899 29.0409 31.9899 28.8582 32.1728C28.6749 32.356 28.6749 32.6528 28.8582 32.8356C29.041 33.0188 29.3382 33.0188 29.5209 32.8356C29.7042 32.6528 29.7042 32.356 29.5209 32.1728Z" fill="#D0A144"/>
<path d="M35.8687 44.9864C36.0754 44.7065 36.1871 44.3692 36.1871 44.0146C36.1871 43.11 35.4511 42.374 34.5465 42.374H26.578C26.1396 42.374 25.7276 42.5446 25.4179 42.8544C25.1081 43.1642 24.9375 43.5762 24.9375 44.0146C24.9375 44.3778 25.0563 44.7137 25.2569 44.9859C24.5105 45.3783 24 46.1611 24 47.0613V47.5301C24 47.789 24.2099 47.9988 24.4688 47.9988H36.6558C36.9146 47.9988 37.1245 47.789 37.1245 47.5301V47.0613C37.1245 46.1615 36.6145 45.379 35.8687 44.9864ZM26.0808 43.5173C26.2135 43.3845 26.3901 43.3114 26.578 43.3114H34.5465C34.9342 43.3114 35.2496 43.6269 35.2496 44.0145C35.2496 44.2025 35.1765 44.3791 35.0437 44.5118C34.911 44.6446 34.7344 44.7176 34.5465 44.7176H26.578C26.1903 44.7176 25.875 44.4022 25.875 44.0146C25.875 43.8266 25.948 43.65 26.0808 43.5173ZM24.9375 47.0613C24.9375 46.286 25.5683 45.6551 26.3437 45.6551H26.578H34.5465H34.7809C35.5562 45.6551 36.1871 46.286 36.1871 47.0613H24.9375Z" fill="#D0A144"/>
<path d="M47.5667 43.6933C47.4075 43.4466 47.2175 43.2284 47.002 43.0448L44.8118 41.1345C44.7947 41.1089 44.775 41.0845 44.7523 41.0618C44.7143 41.0238 44.6711 40.9942 44.6253 40.9719L43.3007 39.8167L37.17 34.4687C37.4209 34.2063 37.5591 33.8632 37.5591 33.4984C37.5591 33.1226 37.4128 32.7694 37.1469 32.5035C37.0309 32.3877 36.8991 32.2966 36.7583 32.2299L37.3255 31.6627C37.484 31.7048 37.6469 31.7264 37.8099 31.7264C38.29 31.7264 38.77 31.5436 39.1355 31.1782C39.4898 30.824 39.6849 30.3531 39.6849 29.8523C39.6849 29.3516 39.4898 28.8807 39.1355 28.5265L35.1583 24.5493C34.804 24.1951 34.3331 24 33.8322 24C33.3316 24 32.8608 24.1951 32.5066 24.5493C32.017 25.0389 31.8559 25.734 32.0221 26.3594L26.3631 32.0183C26.2067 31.9768 26.044 31.9548 25.8778 31.9548C25.3768 31.9548 24.9062 32.1498 24.5522 32.5037C23.8211 33.2347 23.8211 34.4243 24.5522 35.1554L28.5294 39.1327C28.895 39.4982 29.3751 39.681 29.8553 39.681C30.3355 39.681 30.8156 39.4982 31.1812 39.1327C31.6707 38.643 31.8319 37.948 31.6657 37.3226L32.2317 36.7565C32.2997 36.8985 32.392 37.0296 32.5067 37.1442C32.7722 37.4098 33.1254 37.5561 33.5011 37.5561C33.8656 37.5561 34.2085 37.4182 34.4712 37.1675L41.0012 44.67C41.0192 44.6981 41.0402 44.7249 41.0648 44.7495C41.0732 44.7578 41.0821 44.7655 41.0909 44.7731L43.0367 47.0087C43.0851 47.0658 43.1368 47.122 43.1905 47.1757C43.7249 47.7099 44.4308 47.9998 45.1719 47.9998C45.3025 47.9998 45.4344 47.9908 45.5665 47.9725C46.4491 47.8504 47.2119 47.3224 47.6591 46.5237C48.1491 45.6484 48.1127 44.5372 47.5667 43.6933ZM33.1696 25.2122C33.3467 25.0351 33.5821 24.9375 33.8323 24.9375C34.0828 24.9375 34.3183 25.0351 34.4954 25.2122L38.4727 29.1894C38.6498 29.3666 38.7474 29.602 38.7474 29.8524C38.7474 30.1027 38.6498 30.3382 38.4726 30.5153C38.1072 30.8808 37.5126 30.8808 37.1472 30.5153L33.1698 26.538C33.1697 26.5379 33.1697 26.5378 33.1696 26.5377C32.8041 26.1723 32.8041 25.5777 33.1696 25.2122ZM30.5183 38.4697C30.1527 38.8353 29.5578 38.8353 29.1923 38.4697L25.2151 34.4925C24.8495 34.127 24.8495 33.5322 25.2151 33.1666C25.3919 32.9897 25.6273 32.8923 25.8778 32.8923C26.1283 32.8923 26.3635 32.9897 26.5403 33.1664L30.5182 37.1443C30.8837 37.5097 30.8837 38.1044 30.5183 38.4697ZM32.4918 35.1707L31.1811 36.4814L27.2035 32.5038L32.5066 27.2006L36.4842 31.1782L35.1711 32.4913C35.1669 32.4953 35.1627 32.4993 35.1582 32.5037L32.508 35.154C32.5025 35.1594 32.4972 35.165 32.4918 35.1707ZM34.1655 36.1485C34.1646 36.1495 34.1637 36.1504 34.1627 36.1513L33.8327 36.4814C33.7441 36.5699 33.6264 36.6187 33.5011 36.6187C33.3758 36.6187 33.258 36.5699 33.1695 36.4814C33.0809 36.3928 33.0321 36.2749 33.0321 36.1495C33.0321 36.0268 33.0789 35.9114 33.1639 35.8243L35.8264 33.1617C36.0089 32.9843 36.304 32.9865 36.4843 33.1666C36.5729 33.2552 36.6217 33.373 36.6217 33.4984C36.6217 33.6237 36.573 33.7412 36.4842 33.8298L36.1561 34.158C36.1538 34.1602 36.1516 34.1624 36.1494 34.1647L34.1655 36.1485ZM35.1362 36.5036L36.5062 35.1337L42.3066 40.1931L40.19 42.3097L35.1362 36.5036ZM40.8069 43.0186L43.0147 40.8108L43.7228 41.4285L41.4238 43.7275L40.8069 43.0186ZM46.8412 46.0658C46.5387 46.6059 46.0272 46.9624 45.438 47.0439C44.8501 47.1253 44.2724 46.9317 43.8533 46.5127C43.8172 46.4767 43.7827 46.4392 43.7506 46.4011C43.7491 46.3993 43.7476 46.3975 43.746 46.3958L42.0407 44.4363L44.4309 42.0461L46.3879 43.7531C46.3894 43.7544 46.3909 43.7557 46.3924 43.757C46.5389 43.8816 46.6689 44.0311 46.7792 44.202C47.1337 44.7498 47.1585 45.4988 46.8412 46.0658Z" fill="#D0A144"/>
<path d="M32.8354 28.858C32.6523 28.6749 32.3556 28.6749 32.1725 28.858L30.1837 30.8468C30.0006 31.0298 30.0006 31.3267 30.1837 31.5097C30.2752 31.6012 30.3952 31.647 30.5151 31.647C30.6351 31.647 30.755 31.6012 30.8466 31.5097L32.8354 29.5208C33.0184 29.3378 33.0184 29.0411 32.8354 28.858Z" fill="#D0A144"/>
</g>
<defs>
<clipPath id="clip0_965_30">
<rect width="24" height="24" fill="white" transform="translate(24 24)"/>
</clipPath>
</defs>
</svg>
