<svg width="72" height="72" viewBox="0 0 72 72" fill="none" xmlns="http://www.w3.org/2000/svg">
<rect width="72" height="72" rx="36" fill="white"/>
<g clip-path="url(#clip0_965_15)">
<path d="M37.2709 46.2847H34.7289C34.6156 46.2847 34.5069 46.2406 34.4269 46.1623C34.3468 46.0839 34.3018 45.9777 34.3018 45.8669V25.6871C34.3018 25.2465 34.4807 24.824 34.7991 24.5124C35.1176 24.2009 35.5495 24.0259 35.9999 24.0259C36.4503 24.0259 36.8822 24.2009 37.2006 24.5124C37.5191 24.824 37.698 25.2465 37.698 25.6871V45.8673C37.6979 45.978 37.6529 46.0842 37.5728 46.1624C37.4927 46.2407 37.3841 46.2847 37.2709 46.2847ZM35.1559 45.449H36.8438V25.6871C36.8438 25.4681 36.7549 25.2581 36.5966 25.1033C36.4384 24.9485 36.2237 24.8615 35.9999 24.8615C35.7761 24.8615 35.5614 24.9485 35.4031 25.1033C35.2449 25.2581 35.1559 25.4681 35.1559 25.6871V45.449Z" fill="#D0A144"/>
<path d="M25.7068 29.627H24.2406C23.8927 29.6209 23.5612 29.4814 23.3174 29.2386C23.0736 28.9957 22.937 28.669 22.937 28.3286C22.937 27.9883 23.0736 27.6615 23.3174 27.4187C23.5612 27.1759 23.8927 27.0364 24.2406 27.0303H25.4988C25.6121 27.0303 25.7207 27.0743 25.8008 27.1526C25.8809 27.231 25.9259 27.3373 25.9259 27.4481C25.9259 27.5589 25.8809 27.6652 25.8008 27.7435C25.7207 27.8219 25.6121 27.8659 25.4988 27.8659H24.2406C24.1176 27.8695 24.0009 27.9198 23.9152 28.0062C23.8295 28.0926 23.7816 28.2082 23.7816 28.3286C23.7816 28.449 23.8295 28.5646 23.9152 28.651C24.0009 28.7374 24.1176 28.7877 24.2406 28.7913H25.7068C25.8201 28.7913 25.9287 28.8354 26.0088 28.9137C26.0889 28.9921 26.1339 29.0983 26.1339 29.2091C26.1339 29.32 26.0889 29.4262 26.0088 29.5046C25.9287 29.5829 25.8201 29.627 25.7068 29.627Z" fill="#D0A144"/>
<path d="M34.7288 29.627H28.2904C28.1771 29.627 28.0685 29.5829 27.9884 29.5046C27.9083 29.4262 27.8633 29.32 27.8633 29.2091C27.8633 29.0983 27.9083 28.9921 27.9884 28.9137C28.0685 28.8354 28.1771 28.7913 28.2904 28.7913H34.3017V27.8659H28.4979C28.3847 27.8659 28.276 27.8219 28.1959 27.7435C28.1158 27.6652 28.0708 27.5589 28.0708 27.4481C28.0708 27.3373 28.1158 27.231 28.1959 27.1526C28.276 27.0743 28.3847 27.0303 28.4979 27.0303H34.7288C34.8421 27.0303 34.9507 27.0743 35.0308 27.1526C35.1109 27.231 35.1559 27.3373 35.1559 27.4481V29.2091C35.1559 29.32 35.1109 29.4262 35.0308 29.5046C34.9507 29.5829 34.8421 29.627 34.7288 29.627Z" fill="#D0A144"/>
<path d="M43.6167 29.627H37.2713C37.1581 29.627 37.0494 29.5829 36.9693 29.5046C36.8892 29.4262 36.8442 29.32 36.8442 29.2091V27.4481C36.8442 27.3373 36.8892 27.231 36.9693 27.1526C37.0494 27.0743 37.1581 27.0303 37.2713 27.0303H43.4091C43.5224 27.0303 43.631 27.0743 43.7111 27.1526C43.7912 27.231 43.8362 27.3373 43.8362 27.4481C43.8362 27.5589 43.7912 27.6652 43.7111 27.7435C43.631 27.8219 43.5224 27.8659 43.4091 27.8659H37.6984V28.7913H43.6167C43.7299 28.7913 43.8386 28.8354 43.9187 28.9137C43.9988 28.9921 44.0438 29.0983 44.0438 29.2091C44.0438 29.32 43.9988 29.4262 43.9187 29.5046C43.8386 29.5829 43.7299 29.627 43.6167 29.627Z" fill="#D0A144"/>
<path d="M47.7548 29.627H46.2928C46.1795 29.627 46.0709 29.5829 45.9908 29.5046C45.9107 29.4262 45.8657 29.32 45.8657 29.2091C45.8657 29.0983 45.9107 28.9921 45.9908 28.9137C46.0709 28.8354 46.1795 28.7913 46.2928 28.7913H47.7548C47.8778 28.7877 47.9945 28.7374 48.0802 28.651C48.1658 28.5646 48.2138 28.449 48.2138 28.3286C48.2138 28.2082 48.1658 28.0926 48.0802 28.0062C47.9945 27.9198 47.8778 27.8695 47.7548 27.8659H46.5034C46.3901 27.8659 46.2815 27.8219 46.2014 27.7435C46.1213 27.6652 46.0763 27.5589 46.0763 27.4481C46.0763 27.3373 46.1213 27.231 46.2014 27.1526C46.2815 27.0743 46.3901 27.0303 46.5034 27.0303H47.7548C48.1026 27.0364 48.4341 27.1759 48.678 27.4187C48.9218 27.6615 49.0584 27.9883 49.0584 28.3286C49.0584 28.669 48.9218 28.9957 48.678 29.2386C48.4341 29.4814 48.1026 29.6209 47.7548 29.627Z" fill="#D0A144"/>
<path d="M41.4092 48.9735H30.5909C30.5261 48.9735 30.4621 48.959 30.4039 48.9312C30.3456 48.9034 30.2946 48.863 30.2547 48.813C30.2147 48.763 30.187 48.7048 30.1734 48.6428C30.1599 48.5808 30.161 48.5165 30.1767 48.455C30.3528 47.6287 30.8062 46.8838 31.465 46.3387C32.1238 45.7936 32.9499 45.4796 33.8121 45.4468H38.1881C39.0502 45.4796 39.8764 45.7936 40.5352 46.3387C41.1939 46.8838 41.6474 47.6287 41.8235 48.455C41.8391 48.5165 41.8402 48.5808 41.8267 48.6428C41.8132 48.7048 41.7854 48.763 41.7455 48.813C41.7056 48.863 41.6545 48.9034 41.5963 48.9312C41.538 48.959 41.474 48.9735 41.4092 48.9735ZM31.1816 48.1379H40.8185C40.6152 47.61 40.2572 47.1525 39.7893 46.8228C39.3213 46.4931 38.7643 46.3058 38.1881 46.2845H33.8121C33.2358 46.3058 32.6788 46.4931 32.2109 46.8228C31.743 47.1525 31.3849 47.61 31.1816 48.1379Z" fill="#D0A144"/>
<path d="M42.5658 48.9738H29.4344C29.3211 48.9738 29.2125 48.9298 29.1324 48.8514C29.0523 48.7731 29.0073 48.6668 29.0073 48.556C29.0073 48.4452 29.0523 48.3389 29.1324 48.2606C29.2125 48.1822 29.3211 48.1382 29.4344 48.1382H42.5658C42.6791 48.1382 42.7877 48.1822 42.8678 48.2606C42.9479 48.3389 42.9929 48.4452 42.9929 48.556C42.9929 48.6668 42.9479 48.7731 42.8678 48.8514C42.7877 48.9298 42.6791 48.9738 42.5658 48.9738Z" fill="#D0A144"/>
<path d="M50.5211 40.103H39.4845C39.413 40.103 39.3427 40.0855 39.2799 40.0521C39.2171 40.0186 39.1639 39.9703 39.1252 39.9115C39.0865 39.8527 39.0635 39.7853 39.0583 39.7156C39.0531 39.6458 39.0658 39.5759 39.0954 39.5122L43.7849 29.4121C43.808 29.362 43.841 29.3168 43.882 29.2792C43.9229 29.2416 43.9711 29.2123 44.0237 29.1929C44.0762 29.1735 44.1322 29.1644 44.1883 29.1662C44.2445 29.1681 44.2997 29.1807 44.3509 29.2034C44.4021 29.2261 44.4481 29.2585 44.4865 29.2987C44.5248 29.3389 44.5547 29.386 44.5743 29.4375C44.594 29.489 44.6031 29.5438 44.6011 29.5987C44.5991 29.6536 44.5861 29.7076 44.5627 29.7576L40.1474 39.2674H49.8565L45.4451 29.7576C45.4219 29.7076 45.409 29.6537 45.4072 29.5988C45.4053 29.544 45.4145 29.4893 45.4343 29.4379C45.454 29.3866 45.4839 29.3395 45.5223 29.2995C45.5606 29.2594 45.6067 29.2271 45.6577 29.2045C45.7088 29.1818 45.764 29.1692 45.8201 29.1674C45.8761 29.1656 45.932 29.1746 45.9845 29.1939C46.037 29.2132 46.0851 29.2425 46.1261 29.28C46.1671 29.3175 46.2001 29.3625 46.2232 29.4125L50.908 39.5126C50.9374 39.5761 50.9502 39.6458 50.945 39.7153C50.9399 39.7849 50.917 39.852 50.8786 39.9107C50.8401 39.9694 50.7873 40.0177 50.7248 40.0513C50.6624 40.0849 50.5923 40.1027 50.5211 40.103Z" fill="#D0A144"/>
<path d="M45.0465 45.4324H44.9577C41.5379 45.4324 39.0557 43.0158 39.0557 39.6859C39.0557 39.5751 39.1007 39.4688 39.1808 39.3904C39.2609 39.3121 39.3695 39.2681 39.4828 39.2681H50.521C50.6343 39.2681 50.7429 39.3121 50.823 39.3904C50.9031 39.4688 50.9481 39.5751 50.9481 39.6859C50.9481 43.0179 48.4658 45.4324 45.0465 45.4324ZM39.9248 40.1037C40.1153 42.7702 42.1307 44.5968 44.9577 44.5968H45.0465C47.873 44.5968 49.8889 42.7702 50.0789 40.1037H39.9248Z" fill="#D0A144"/>
<path d="M45.0024 30.2231C44.5871 30.2232 44.1811 30.1028 43.8357 29.8772C43.4904 29.6515 43.2212 29.3307 43.0622 28.9554C42.9033 28.5801 42.8617 28.167 42.9427 27.7686C43.0237 27.3701 43.2236 27.0041 43.5173 26.7168C43.811 26.4295 44.1851 26.2339 44.5924 26.1547C44.9997 26.0754 45.4219 26.1162 45.8056 26.2717C46.1893 26.4272 46.5172 26.6905 46.7478 27.0283C46.9785 27.3662 47.1016 27.7633 47.1015 28.1696C47.1008 28.714 46.8795 29.236 46.4859 29.6209C46.0924 30.0059 45.5589 30.2225 45.0024 30.2231ZM45.0024 26.9513C44.756 26.9512 44.5152 27.0226 44.3103 27.1564C44.1055 27.2902 43.9458 27.4805 43.8515 27.7031C43.7571 27.9257 43.7324 28.1707 43.7804 28.407C43.8284 28.6434 43.947 28.8605 44.1211 29.0309C44.2953 29.2014 44.5172 29.3175 44.7588 29.3645C45.0004 29.4115 45.2508 29.3874 45.4784 29.2952C45.706 29.203 45.9005 29.0469 46.0374 28.8465C46.1743 28.6462 46.2473 28.4106 46.2473 28.1696C46.247 27.8467 46.1157 27.537 45.8823 27.3086C45.6489 27.0802 45.3325 26.9517 45.0024 26.9513Z" fill="#D0A144"/>
<path d="M32.5148 40.1032H21.4787C21.4073 40.1032 21.337 40.0856 21.2742 40.0521C21.2115 40.0186 21.1584 39.9703 21.1197 39.9115C21.081 39.8527 21.0581 39.7854 21.0529 39.7157C21.0477 39.6459 21.0605 39.576 21.0901 39.5124L25.7804 29.4123C25.8273 29.3114 25.9132 29.2328 26.0193 29.1938C26.1253 29.1548 26.2429 29.1586 26.3461 29.2044C26.4493 29.2503 26.5297 29.3343 26.5695 29.4381C26.6094 29.5419 26.6054 29.6569 26.5586 29.7578L22.1433 39.2676H31.8524L27.441 29.7578C27.4164 29.7077 27.4024 29.6533 27.3996 29.5977C27.3969 29.5422 27.4055 29.4867 27.4249 29.4345C27.4444 29.3823 27.4743 29.3343 27.5129 29.2936C27.5515 29.2528 27.598 29.2199 27.6498 29.197C27.7015 29.174 27.7574 29.1614 27.8142 29.1598C27.8711 29.1583 27.9276 29.1678 27.9806 29.1879C28.0336 29.208 28.0819 29.2382 28.1228 29.2768C28.1637 29.3154 28.1963 29.3616 28.2187 29.4127L32.9039 39.5128C32.9334 39.5765 32.9461 39.6464 32.9409 39.7161C32.9356 39.7858 32.9126 39.8531 32.8739 39.9118C32.8352 39.9705 32.782 40.0188 32.7193 40.0523C32.6566 40.0857 32.5863 40.1032 32.5148 40.1032Z" fill="#D0A144"/>
<path d="M27.0422 45.4324H26.9533C23.534 45.4324 21.0518 43.0179 21.0518 39.6859C21.0518 39.5751 21.0968 39.4688 21.1769 39.3904C21.2569 39.3121 21.3656 39.2681 21.4789 39.2681H32.5171C32.6304 39.2681 32.739 39.3121 32.8191 39.3904C32.8992 39.4688 32.9442 39.5751 32.9442 39.6859C32.9442 43.0179 30.4619 45.4324 27.0422 45.4324ZM21.9209 40.1037C22.111 42.7702 24.1268 44.5968 26.9533 44.5968H27.0422C29.8691 44.5968 31.8846 42.7702 32.075 40.1037H21.9209Z" fill="#D0A144"/>
<path d="M26.9975 30.2231C26.5823 30.2231 26.1763 30.1027 25.831 29.877C25.4857 29.6512 25.2166 29.3304 25.0577 28.9551C24.8988 28.5798 24.8573 28.1668 24.9383 27.7683C25.0194 27.3699 25.2194 27.0039 25.5131 26.7167C25.8067 26.4294 26.1809 26.2339 26.5882 26.1547C26.9955 26.0754 27.4177 26.1162 27.8013 26.2717C28.185 26.4272 28.5128 26.6906 28.7435 27.0284C28.9742 27.3662 29.0972 27.7634 29.0971 28.1696C29.0965 28.7141 28.875 29.2361 28.4814 29.6211C28.0878 30.0061 27.5541 30.2226 26.9975 30.2231ZM26.9975 26.9513C26.7512 26.9513 26.5104 27.0227 26.3056 27.1566C26.1008 27.2905 25.9412 27.4807 25.8469 27.7034C25.7527 27.926 25.728 28.171 25.7761 28.4073C25.8241 28.6436 25.9427 28.8607 26.1169 29.0311C26.2911 29.2015 26.513 29.3175 26.7546 29.3645C26.9962 29.4115 27.2466 29.3874 27.4741 29.2952C27.7017 29.203 27.8962 29.0468 28.0331 28.8465C28.1699 28.6461 28.2429 28.4106 28.2429 28.1696C28.2426 27.8466 28.1113 27.5369 27.8778 27.3085C27.6443 27.0801 27.3277 26.9516 26.9975 26.9513Z" fill="#D0A144"/>
</g>
<defs>
<clipPath id="clip0_965_15">
<rect width="30" height="25" fill="white" transform="translate(21 24)"/>
</clipPath>
</defs>
</svg>
