<svg width="73" height="72" viewBox="0 0 73 72" fill="none" xmlns="http://www.w3.org/2000/svg">
<rect x="0.5" width="72" height="72" rx="36" fill="white"/>
<g clip-path="url(#clip0_965_45)">
<path d="M32.4665 28.0088H27.9083C27.4864 28.0088 27.1445 28.3498 27.1445 28.7705C27.1445 29.1912 27.4864 29.5322 27.9083 29.5322H32.4665C32.8882 29.5322 33.2302 29.1912 33.2302 28.7705C33.2302 28.3498 32.8882 28.0088 32.4665 28.0088Z" fill="#D0A144"/>
<path d="M32.4665 31.0562H27.9083C27.4864 31.0562 27.1445 31.3971 27.1445 31.8179C27.1445 32.2386 27.4864 32.5796 27.9083 32.5796H32.4665C32.8882 32.5796 33.2302 32.2386 33.2302 31.8179C33.2302 31.3971 32.8882 31.0562 32.4665 31.0562Z" fill="#D0A144"/>
<path d="M32.4665 34.103H27.9083C27.4864 34.103 27.1445 34.444 27.1445 34.8647C27.1445 35.2855 27.4864 35.6265 27.9083 35.6265H32.4665C32.8882 35.6265 33.2302 35.2855 33.2302 34.8647C33.2302 34.444 32.8882 34.103 32.4665 34.103Z" fill="#D0A144"/>
<path d="M32.4665 37.1499H27.9083C27.4864 37.1499 27.1445 37.4909 27.1445 37.9116C27.1445 38.3324 27.4864 38.6733 27.9083 38.6733H32.4665C32.8882 38.6733 33.2302 38.3324 33.2302 37.9116C33.2302 37.4909 32.8882 37.1499 32.4665 37.1499Z" fill="#D0A144"/>
<path d="M32.4665 40.248H27.9083C27.4864 40.248 27.1445 40.5892 27.1445 41.0098C27.1445 41.4305 27.4864 41.7715 27.9083 41.7715H32.4665C32.8882 41.7715 33.2302 41.4305 33.2302 41.0098C33.2302 40.5892 32.8882 40.248 32.4665 40.248Z" fill="#D0A144"/>
<path d="M35.0313 29.5322H39.5895C40.0114 29.5322 40.3533 29.1912 40.3533 28.7705C40.3533 28.3498 40.0114 28.0088 39.5895 28.0088H35.0313C34.6097 28.0088 34.2676 28.3498 34.2676 28.7705C34.2676 29.1912 34.6097 29.5322 35.0313 29.5322Z" fill="#D0A144"/>
<path d="M35.0313 32.5796H39.5895C40.0114 32.5796 40.3533 32.2386 40.3533 31.8179C40.3533 31.3971 40.0114 31.0562 39.5895 31.0562H35.0313C34.6097 31.0562 34.2676 31.3971 34.2676 31.8179C34.2676 32.2386 34.6097 32.5796 35.0313 32.5796Z" fill="#D0A144"/>
<path d="M37.9905 34.8647C37.9905 34.444 37.6486 34.103 37.2267 34.103H35.0313C34.6097 34.103 34.2676 34.444 34.2676 34.8647C34.2676 35.2855 34.6097 35.6265 35.0313 35.6265H37.2267C37.6486 35.6265 37.9905 35.2855 37.9905 34.8647Z" fill="#D0A144"/>
<path d="M45.2258 40.5695C44.8968 40.3062 44.4163 40.3588 44.1522 40.6869L42.1851 43.1327L40.9673 42.2528C40.6258 42.0058 40.148 42.082 39.9006 42.4226C39.6532 42.7634 39.7296 43.2396 40.0711 43.4864L41.8776 44.7918C42.0129 44.8894 42.1696 44.9368 42.3253 44.9368C42.5495 44.9368 42.771 44.8386 42.9214 44.6516L45.3437 41.6402C45.6077 41.3121 45.5549 40.8327 45.2258 40.5695Z" fill="#D0A144"/>
<path d="M47.1561 38.2314C46.1612 37.2217 44.8829 36.5854 43.4978 36.3979V26.0677C43.4978 24.3763 42.1179 23 40.422 23H27.0761C25.3799 23 24 24.3763 24 26.0677V43.7128C24 45.4044 25.3799 46.7807 27.0759 46.7807H37.8099C39.0178 48.1958 40.7545 49 42.6334 49C46.131 49 48.9763 46.1602 48.9763 42.6696C48.9763 40.9986 48.3299 39.4224 47.1561 38.2314ZM25.5275 43.7128V26.0677C25.5275 25.2163 26.2222 24.5234 27.0761 24.5234H40.422C41.2758 24.5234 41.9703 25.2163 41.9703 26.0677V36.3737C38.7833 36.7056 36.2906 39.4023 36.2906 42.6696C36.2906 43.5751 36.4799 44.4507 36.8431 45.2571H27.0761C26.2222 45.2571 25.5275 44.5644 25.5275 43.7128ZM42.6334 47.4766C41.1081 47.4766 39.7059 46.7781 38.7861 45.5606C38.1528 44.7221 37.8179 43.7225 37.8179 42.6696C37.8179 40.0191 39.9782 37.8626 42.6334 37.8626C42.6585 37.8626 42.6838 37.863 42.7088 37.8634L42.7206 37.8636C43.9881 37.886 45.1765 38.3958 46.0667 39.2992C46.958 40.2035 47.4488 41.4007 47.4488 42.6696C47.4488 45.3201 45.2887 47.4766 42.6334 47.4766Z" fill="#D0A144"/>
</g>
<defs>
<clipPath id="clip0_965_45">
<rect width="25" height="26" fill="white" transform="translate(24 23)"/>
</clipPath>
</defs>
</svg>
